<?xml version="1.0" encoding="UTF-8"?>
<!DOCTYPE svg PUBLIC "-//W3C//DTD SVG 1.1//EN" "http://www.w3.org/Graphics/SVG/1.1/DTD/svg11.dtd">
<svg xmlns="http://www.w3.org/2000/svg" version="1.1" width="1088px" height="723px" style="shape-rendering:geometricPrecision; text-rendering:geometricPrecision; image-rendering:optimizeQuality; fill-rule:evenodd; clip-rule:evenodd" xmlns:xlink="http://www.w3.org/1999/xlink">
<g><path style="opacity:1" fill="#fefefe" d="M -0.5,-0.5 C 362.167,-0.5 724.833,-0.5 1087.5,-0.5C 1087.5,240.5 1087.5,481.5 1087.5,722.5C 724.833,722.5 362.167,722.5 -0.5,722.5C -0.5,481.5 -0.5,240.5 -0.5,-0.5 Z"/></g>
<g><path style="opacity:1" fill="#ce9c11" d="M 386.5,24.5 C 395.167,24.5 403.833,24.5 412.5,24.5C 412.5,235.5 412.5,446.5 412.5,657.5C 403.833,657.5 395.167,657.5 386.5,657.5C 386.5,446.5 386.5,235.5 386.5,24.5 Z"/></g>
<g><path style="opacity:1" fill="#cd9a06" d="M 425.5,91.5 C 433.42,91.185 441.253,91.5183 449,92.5C 450.662,258.185 450.829,423.852 449.5,589.5C 442.159,589.666 434.826,589.5 427.5,589C 427,588.5 426.5,588 426,587.5C 425.5,422.167 425.333,256.834 425.5,91.5 Z"/></g>
<g><path style="opacity:1" fill="#b5b3b1" d="M 348.5,124.5 C 357.235,124.124 365.902,124.624 374.5,126C 375.126,126.75 375.626,127.584 376,128.5C 376.667,272.5 376.667,416.5 376,560.5C 375.626,561.416 375.126,562.25 374.5,563C 365.899,565.157 357.399,564.99 349,562.5C 348.5,416.5 348.333,270.5 348.5,124.5 Z"/></g>
<g><path style="opacity:1" fill="#cc9a03" d="M 351.5,127.5 C 358.167,127.5 364.833,127.5 371.5,127.5C 371.5,143.167 371.5,158.833 371.5,174.5C 365.974,174.179 360.64,174.512 355.5,175.5C 354.292,176.234 352.959,176.567 351.5,176.5C 351.5,160.167 351.5,143.833 351.5,127.5 Z"/></g>
<g><path style="opacity:1" fill="#c49e32" d="M 351.5,127.5 C 358.313,126.509 365.313,126.175 372.5,126.5C 372.5,142.833 372.5,159.167 372.5,175.5C 366.833,175.5 361.167,175.5 355.5,175.5C 360.64,174.512 365.974,174.179 371.5,174.5C 371.5,158.833 371.5,143.167 371.5,127.5C 364.833,127.5 358.167,127.5 351.5,127.5 Z"/></g>
<g><path style="opacity:1" fill="#fdfaf3" d="M 429.5,175.5 C 434.565,175.219 439.565,175.552 444.5,176.5C 445.815,185.059 445.815,193.559 444.5,202C 439.511,202.499 434.511,202.666 429.5,202.5C 428.419,193.438 428.419,184.438 429.5,175.5 Z"/></g>
<g><path style="opacity:1" fill="#fcfcfc" d="M 355.5,176.5 C 359.833,176.5 364.167,176.5 368.5,176.5C 368.666,184.174 368.5,191.841 368,199.5C 363.934,200.464 359.767,200.797 355.5,200.5C 355.5,192.5 355.5,184.5 355.5,176.5 Z"/></g>
<g><path style="opacity:1" fill="#fdfaf4" d="M 394.5,188.5 C 399.537,188.413 404.537,188.746 409.5,189.5C 409.831,197.528 409.498,205.528 408.5,213.5C 402.636,214.816 396.803,214.816 391,213.5C 390.5,205.507 390.334,197.507 390.5,189.5C 392.099,189.768 393.432,189.434 394.5,188.5 Z"/></g>
<g><path style="opacity:1" fill="#cf9e17" d="M 276.5,218.5 C 293.837,218.333 311.17,218.5 328.5,219C 331.168,219.567 333.834,220.067 336.5,220.5C 336.812,227.422 336.479,234.256 335.5,241C 315.503,241.5 295.503,241.667 275.5,241.5C 275.233,233.778 275.566,226.111 276.5,218.5 Z"/></g>
<g><path style="opacity:1" fill="#dfbf5f" d="M 469.5,216.5 C 469.5,223.167 469.5,229.833 469.5,236.5C 488.833,236.5 508.167,236.5 527.5,236.5C 527.5,229.833 527.5,223.167 527.5,216.5C 528.491,223.313 528.825,230.313 528.5,237.5C 508.5,237.5 488.5,237.5 468.5,237.5C 468.175,230.313 468.509,223.313 469.5,216.5 Z"/></g>
<g><path style="opacity:1" fill="#cd9a04" d="M 469.5,216.5 C 488.833,216.5 508.167,216.5 527.5,216.5C 527.5,223.167 527.5,229.833 527.5,236.5C 508.167,236.5 488.833,236.5 469.5,236.5C 469.5,229.833 469.5,223.167 469.5,216.5 Z"/></g>
<g><path style="opacity:1" fill="#ddba55" d="M 473.5,250.5 C 513.33,249.501 553.33,249.168 593.5,249.5C 593.5,251.5 593.5,253.5 593.5,255.5C 592.549,254.081 592.216,252.415 592.5,250.5C 552.833,250.5 513.167,250.5 473.5,250.5 Z"/></g>
<g><path style="opacity:1" fill="#ce9c10" d="M 473.5,250.5 C 513.167,250.5 552.833,250.5 592.5,250.5C 592.216,252.415 592.549,254.081 593.5,255.5C 593.666,260.844 593.499,266.177 593,271.5C 591.261,272.894 589.261,273.561 587,273.5C 549.181,272.688 511.347,272.188 473.5,272C 472.584,271.626 471.75,271.126 471,270.5C 470.333,264.833 470.333,259.167 471,253.5C 471.377,252.058 472.21,251.058 473.5,250.5 Z"/></g>
<g><path style="opacity:1" fill="#aeaca9" d="M 180.5,250.5 C 233.196,250.18 285.863,250.513 338.5,251.5C 338.5,258.833 338.5,266.167 338.5,273.5C 285.863,274.487 233.196,274.82 180.5,274.5C 178.589,274.426 177.422,273.426 177,271.5C 176.5,264.842 176.334,258.175 176.5,251.5C 177.959,251.567 179.292,251.234 180.5,250.5 Z"/></g>
<g><path style="opacity:1" fill="#cc9a02" d="M 179.5,271.5 C 180.342,266.213 180.676,260.88 180.5,255.5C 231.823,253.504 283.489,252.838 335.5,253.5C 335.5,259.5 335.5,265.5 335.5,271.5C 283.5,271.5 231.5,271.5 179.5,271.5 Z"/></g>
<g><path style="opacity:1" fill="#bfa14c" d="M 179.5,271.5 C 231.5,271.5 283.5,271.5 335.5,271.5C 335.5,265.5 335.5,259.5 335.5,253.5C 283.489,252.838 231.823,253.504 180.5,255.5C 179.596,254.791 179.263,253.791 179.5,252.5C 231.833,252.5 284.167,252.5 336.5,252.5C 336.5,259.167 336.5,265.833 336.5,272.5C 283.997,272.832 231.664,272.499 179.5,271.5 Z"/></g>
<g><path style="opacity:1" fill="#cfcece" d="M 180.5,250.5 C 232.665,249.335 284.998,249.168 337.5,250C 338.796,253.909 339.463,258.075 339.5,262.5C 339.463,266.925 338.796,271.091 337.5,275C 284.998,275.832 232.665,275.665 180.5,274.5C 233.196,274.82 285.863,274.487 338.5,273.5C 338.5,266.167 338.5,258.833 338.5,251.5C 285.863,250.513 233.196,250.18 180.5,250.5 Z"/></g>
<g><path style="opacity:1" fill="#ce9c12" d="M 247.5,286.5 C 277.167,286.5 306.833,286.5 336.5,286.5C 336.813,293.755 336.48,300.921 335.5,308C 306.833,308.667 278.167,308.667 249.5,308C 248.874,307.25 248.374,306.416 248,305.5C 247.5,299.175 247.334,292.842 247.5,286.5 Z"/></g>
<g><path style="opacity:1" fill="#ce9c11" d="M 538.5,286.5 C 538.5,293.5 538.5,300.5 538.5,307.5C 517.167,307.5 495.833,307.5 474.5,307.5C 474.5,300.167 474.5,292.833 474.5,285.5C 496.007,285.169 517.34,285.503 538.5,286.5 Z"/></g>
<g><path style="opacity:1" fill="#e4ca7a" d="M 538.5,286.5 C 539.492,293.648 539.825,300.981 539.5,308.5C 517.66,308.831 495.994,308.497 474.5,307.5C 495.833,307.5 517.167,307.5 538.5,307.5C 538.5,300.5 538.5,293.5 538.5,286.5 Z"/></g>
<g><path style="opacity:1" fill="#b6a677" d="M 372.5,560.5 C 372.5,441.167 372.5,321.833 372.5,202.5C 365.167,202.5 357.833,202.5 350.5,202.5C 350.5,321.833 350.5,441.167 350.5,560.5C 349.5,441.001 349.167,321.334 349.5,201.5C 357.5,201.5 365.5,201.5 373.5,201.5C 373.833,321.334 373.5,441.001 372.5,560.5 Z"/></g>
<g><path style="opacity:1" fill="#cc9a04" d="M 372.5,560.5 C 365.167,560.5 357.833,560.5 350.5,560.5C 350.5,441.167 350.5,321.833 350.5,202.5C 357.833,202.5 365.167,202.5 372.5,202.5C 372.5,321.833 372.5,441.167 372.5,560.5 Z"/></g>
<g><path style="opacity:1" fill="#afaeae" d="M 613.5,410.5 C 618.833,410.5 624.167,410.5 629.5,410.5C 629.5,429.833 629.5,449.167 629.5,468.5C 624.5,468.5 619.5,468.5 614.5,468.5C 614.425,465.794 614.092,463.127 613.5,460.5C 605.16,460.334 596.827,460.5 588.5,461C 582.775,464.034 576.775,466.201 570.5,467.5C 551.89,467.219 541.556,457.886 539.5,439.5C 540.73,425.757 548.063,416.924 561.5,413C 572.306,410.887 581.639,413.554 589.5,421C 597.493,421.5 605.493,421.666 613.5,421.5C 613.5,417.833 613.5,414.167 613.5,410.5 Z"/></g>
<g><path style="opacity:1" fill="#adacac" d="M 723.5,410.5 C 728.833,410.5 734.167,410.5 739.5,410.5C 739.5,437.167 739.5,463.833 739.5,490.5C 734.167,490.5 728.833,490.5 723.5,490.5C 723.5,463.833 723.5,437.167 723.5,410.5 Z"/></g>
<g><path style="opacity:1" fill="#afaeae" d="M 889.5,410.5 C 901.167,410.5 912.833,410.5 924.5,410.5C 924.5,415.167 924.5,419.833 924.5,424.5C 912.833,424.5 901.167,424.5 889.5,424.5C 889.5,419.833 889.5,415.167 889.5,410.5 Z"/></g>
<g><path style="opacity:1" fill="#aeadad" d="M 947.5,409.5 C 951.514,409.334 955.514,409.501 959.5,410C 961.329,410.273 962.829,411.107 964,412.5C 964.667,449.167 964.667,485.833 964,522.5C 958.633,523.93 953.133,524.597 947.5,524.5C 946.179,486.148 946.179,447.814 947.5,409.5 Z"/></g>
<g><path style="opacity:1" fill="#d1d1d1" d="M 704.5,418.5 C 688.452,418.197 672.452,418.53 656.5,419.5C 656.611,418.883 656.944,418.383 657.5,418C 673.339,417.172 689.005,417.339 704.5,418.5 Z"/></g>
<g><path style="opacity:1" fill="#aeadad" d="M 704.5,418.5 C 705.794,419.29 706.961,420.29 708,421.5C 708.833,437.177 708.666,452.844 707.5,468.5C 706.636,470.197 705.303,471.363 703.5,472C 687.833,472.667 672.167,472.667 656.5,472C 655.667,471.167 654.833,470.333 654,469.5C 653.333,453.5 653.333,437.5 654,421.5C 654.708,420.619 655.542,419.953 656.5,419.5C 672.452,418.53 688.452,418.197 704.5,418.5 Z"/></g>
<g><path style="opacity:1" fill="#adacac" d="M 847.5,418.5 C 847.783,419.289 848.283,419.956 849,420.5C 849.899,439.214 849.399,457.881 847.5,476.5C 841.833,476.5 836.167,476.5 830.5,476.5C 832.699,461.917 834.032,447.25 834.5,432.5C 813.673,431.503 792.673,431.169 771.5,431.5C 771.5,427.167 771.5,422.833 771.5,418.5C 796.833,418.5 822.167,418.5 847.5,418.5 Z"/></g>
<g><path style="opacity:1" fill="#fbfbfb" d="M 562.5,426.5 C 575.983,425.155 582.483,431.155 582,444.5C 577.929,451.907 571.762,454.74 563.5,453C 555.897,448.605 553.397,442.105 556,433.5C 558.372,431.297 560.539,428.963 562.5,426.5 Z"/></g>
<g><path style="opacity:1" fill="#b0afaf" d="M 873.5,428.5 C 895.5,428.5 917.5,428.5 939.5,428.5C 939.5,432.5 939.5,436.5 939.5,440.5C 917.169,441.821 894.835,441.821 872.5,440.5C 872.237,436.4 872.57,432.4 873.5,428.5 Z"/></g>
<g><path style="opacity:1" fill="#cac9c9" d="M 847.5,418.5 C 822.167,418.5 796.833,418.5 771.5,418.5C 771.5,422.833 771.5,427.167 771.5,431.5C 792.673,431.169 813.673,431.503 834.5,432.5C 813.167,432.5 791.833,432.5 770.5,432.5C 770.5,427.5 770.5,422.5 770.5,417.5C 796.339,417.169 822.005,417.502 847.5,418.5 Z"/></g>
<g><path style="opacity:1" fill="#fefefe" d="M 690.5,457.5 C 690.389,458.117 690.056,458.617 689.5,459C 684.845,459.499 680.179,459.666 675.5,459.5C 674.122,458.766 672.622,458.099 671,457.5C 670.5,449.173 670.334,440.84 670.5,432.5C 677.167,432.5 683.833,432.5 690.5,432.5C 690.5,440.833 690.5,449.167 690.5,457.5 Z"/></g>
<g><path style="opacity:1" fill="#d4d4d4" d="M 690.5,457.5 C 690.5,449.167 690.5,440.833 690.5,432.5C 683.833,432.5 677.167,432.5 670.5,432.5C 670.334,440.84 670.5,449.173 671,457.5C 672.622,458.099 674.122,458.766 675.5,459.5C 673.533,459.739 671.699,459.406 670,458.5C 669.5,449.506 669.334,440.506 669.5,431.5C 676.833,431.5 684.167,431.5 691.5,431.5C 691.826,440.349 691.493,449.016 690.5,457.5 Z"/></g>
<g><path style="opacity:1" fill="#fdfdfd" d="M 613.5,434.5 C 613.5,438.5 613.5,442.5 613.5,446.5C 608.167,446.5 602.833,446.5 597.5,446.5C 597.244,442.731 597.577,439.064 598.5,435.5C 603.305,434.513 608.305,434.179 613.5,434.5 Z"/></g>
<g><path style="opacity:1" fill="#afaeae" d="M 897.5,444.5 C 912.353,441.278 924.186,445.611 933,457.5C 935.204,463.158 934.537,468.491 931,473.5C 926.688,477.826 921.688,481.159 916,483.5C 915.503,485.81 915.337,488.143 915.5,490.5C 924.162,489.822 932.829,489.656 941.5,490C 942.795,493.786 942.795,497.62 941.5,501.5C 926.376,504.908 911.042,506.241 895.5,505.5C 886.833,505.333 878.167,505.167 869.5,505C 866.775,500 867.441,495.333 871.5,491C 880.494,490.5 889.494,490.334 898.5,490.5C 898.663,488.143 898.497,485.81 898,483.5C 891.797,481.068 886.464,477.401 882,472.5C 877.611,462.329 880.111,454.162 889.5,448C 892.309,446.907 894.976,445.74 897.5,444.5 Z"/></g>
<g><path style="opacity:1" fill="#d8d8d8" d="M 613.5,434.5 C 614.485,438.634 614.818,442.968 614.5,447.5C 608.5,447.5 602.5,447.5 596.5,447.5C 595.911,443.029 596.577,439.029 598.5,435.5C 597.577,439.064 597.244,442.731 597.5,446.5C 602.833,446.5 608.167,446.5 613.5,446.5C 613.5,442.5 613.5,438.5 613.5,434.5 Z"/></g>
<g><path style="opacity:1" fill="#afaeae" d="M 823.5,456.5 C 823.5,467.833 823.5,479.167 823.5,490.5C 836.48,491.354 849.48,491.687 862.5,491.5C 863.796,495.369 863.796,499.369 862.5,503.5C 827.171,504.667 791.838,504.833 756.5,504C 755.533,499.599 755.2,495.099 755.5,490.5C 763.943,490.938 772.277,490.438 780.5,489C 781.321,478.577 781.821,468.077 782,457.5C 787.333,456.167 792.667,456.167 798,457.5C 798.5,468.495 798.667,479.495 798.5,490.5C 801.5,490.5 804.5,490.5 807.5,490.5C 807.333,479.495 807.5,468.495 808,457.5C 813.159,455.36 818.326,455.026 823.5,456.5 Z"/></g>
<g><path style="opacity:1" fill="#f9f9f9" d="M 897.5,457.5 C 903.842,457.334 910.175,457.5 916.5,458C 917.617,461.073 917.784,464.24 917,467.5C 910.333,472.833 903.667,472.833 897,467.5C 896.253,464.076 896.42,460.743 897.5,457.5 Z"/></g>
<g><path style="opacity:1" fill="#afaeae" d="M 559.5,474.5 C 582.176,474.167 604.843,474.5 627.5,475.5C 627.808,476.308 628.308,476.975 629,477.5C 629.687,486.856 629.521,496.189 628.5,505.5C 610.821,505.167 593.154,505.5 575.5,506.5C 574.691,508.071 574.357,509.738 574.5,511.5C 593.503,511.333 612.503,511.5 631.5,512C 633.797,516.557 633.13,520.89 629.5,525C 606.202,524.552 582.868,524.385 559.5,524.5C 558.634,514.845 558.467,505.178 559,495.5C 559.5,495 560,494.5 560.5,494C 578.125,492.586 595.791,492.086 613.5,492.5C 613.714,490.856 613.38,489.356 612.5,488C 594.824,487.833 577.157,487.333 559.5,486.5C 556.928,482.504 556.928,478.504 559.5,474.5 Z"/></g>
<g><path style="opacity:1" fill="#aeadad" d="M 686.5,485.5 C 686.5,493.167 686.5,500.833 686.5,508.5C 705.466,509.462 724.466,509.796 743.5,509.5C 743.5,513.833 743.5,518.167 743.5,522.5C 720.164,522.667 696.831,522.5 673.5,522C 672.29,520.961 671.29,519.794 670.5,518.5C 670.5,507.5 670.5,496.5 670.5,485.5C 675.833,485.5 681.167,485.5 686.5,485.5 Z"/></g>
<g><path style="opacity:1" fill="#cdcccc" d="M 823.5,456.5 C 824.495,467.321 824.828,478.321 824.5,489.5C 837.333,489.932 850,490.599 862.5,491.5C 849.48,491.687 836.48,491.354 823.5,490.5C 823.5,479.167 823.5,467.833 823.5,456.5 Z"/></g>
<g><path style="opacity:1" fill="#d1d1d1" d="M 686.5,485.5 C 681.167,485.5 675.833,485.5 670.5,485.5C 670.5,496.5 670.5,507.5 670.5,518.5C 669.505,507.346 669.172,496.012 669.5,484.5C 675.358,484.178 681.025,484.511 686.5,485.5 Z"/></g>
<g><path style="opacity:1" fill="#d0cfcf" d="M 686.5,485.5 C 687.492,492.648 687.825,499.981 687.5,507.5C 706.326,508.057 724.992,508.723 743.5,509.5C 724.466,509.796 705.466,509.462 686.5,508.5C 686.5,500.833 686.5,493.167 686.5,485.5 Z"/></g>
<g><path style="opacity:1" fill="#f67fc6" d="M 472.5,643.5 C 472.334,639.486 472.501,635.486 473,631.5C 473.989,629.03 475.155,626.697 476.5,624.5C 483.198,616.612 491.531,614.445 501.5,618C 517.238,626.699 519.571,638.033 508.5,652C 499.051,657.591 489.385,657.925 479.5,653C 476.524,650.175 474.191,647.008 472.5,643.5 Z"/></g>
<g><path style="opacity:1" fill="#fea30d" d="M 607.5,618.5 C 614.508,618.334 621.508,618.5 628.5,619C 638.816,623.684 642.316,631.517 639,642.5C 636.237,652.149 629.737,656.816 619.5,656.5C 615.171,655.963 610.838,655.463 606.5,655C 603.684,651.217 600.517,647.717 597,644.5C 596.333,639.5 596.333,634.5 597,629.5C 600.03,625.305 603.53,621.639 607.5,618.5 Z"/></g>
<g><path style="opacity:1" fill="#fbc6e5" d="M 476.5,624.5 C 475.155,626.697 473.989,629.03 473,631.5C 472.501,635.486 472.334,639.486 472.5,643.5C 471.353,639.354 471.186,635.02 472,630.5C 472.566,627.771 474.066,625.771 476.5,624.5 Z"/></g>
<g><path style="opacity:1" fill="#b1b5aa" d="M 551.5,616.5 C 550.5,617.167 549.5,617.833 548.5,618.5C 535.373,622.415 530.873,631.081 535,644.5C 537.128,647.63 539.628,650.463 542.5,653C 550.486,654.962 558.486,654.962 566.5,653C 570.47,650.869 573.137,647.702 574.5,643.5C 575.647,639.354 575.814,635.02 575,630.5C 574.722,629.584 574.222,628.918 573.5,628.5C 569.838,622.521 564.505,618.854 557.5,617.5C 557.5,617.167 557.5,616.833 557.5,616.5C 573.121,619.392 579.621,628.725 577,644.5C 572.063,653.481 564.397,658.481 554,659.5C 540.94,658.106 533.44,650.939 531.5,638C 531.825,624.844 538.491,617.678 551.5,616.5 Z"/></g>
<g><path style="opacity:1" fill="#8bd43d" d="M 573.5,628.5 C 574.222,628.918 574.722,629.584 575,630.5C 575.814,635.02 575.647,639.354 574.5,643.5C 574.587,638.463 574.254,633.463 573.5,628.5 Z"/></g>
<g><path style="opacity:1" fill="#7ce40a" d="M 557.5,617.5 C 564.505,618.854 569.838,622.521 573.5,628.5C 574.254,633.463 574.587,638.463 574.5,643.5C 573.137,647.702 570.47,650.869 566.5,653C 558.486,654.962 550.486,654.962 542.5,653C 539.628,650.463 537.128,647.63 535,644.5C 530.873,631.081 535.373,622.415 548.5,618.5C 551.482,618.037 554.482,617.704 557.5,617.5 Z"/></g>
<g><path style="opacity:1" fill="#9ad855" d="M 551.5,616.5 C 553.5,616.5 555.5,616.5 557.5,616.5C 557.5,616.833 557.5,617.167 557.5,617.5C 554.482,617.704 551.482,618.037 548.5,618.5C 549.5,617.833 550.5,617.167 551.5,616.5 Z"/></g>
<g><path style="opacity:1" fill="#96aefd" d="M 533.5,700.5 C 533.26,694.773 533.593,689.106 534.5,683.5C 542.57,671.428 553.236,668.594 566.5,675C 576.15,680.88 579.317,689.38 576,700.5C 567.304,713.394 555.804,716.561 541.5,710C 538.217,707.228 535.55,704.061 533.5,700.5 Z"/></g>
<g><path style="opacity:1" fill="#fdc410" d="M 513.5,684.5 C 514.162,688.466 514.495,692.466 514.5,696.5C 512.673,703.182 508.673,708.349 502.5,712C 489.428,715.536 479.261,711.703 472,700.5C 471.17,694.804 471.337,689.137 472.5,683.5C 475.985,680.516 479.318,677.349 482.5,674C 489.914,673.11 497.247,673.443 504.5,675C 508.402,677.4 511.402,680.566 513.5,684.5 Z"/></g>
<g><path style="opacity:1" fill="#97aefd" d="M 610.5,673.5 C 621.288,671.115 630.122,674.115 637,682.5C 642.843,699.824 636.676,709.491 618.5,711.5C 609.379,711.859 602.546,708.193 598,700.5C 594.385,687.683 598.551,678.683 610.5,673.5 Z"/></g>
<g><path style="opacity:1" fill="#bfcdfe" d="M 534.5,683.5 C 533.593,689.106 533.26,694.773 533.5,700.5C 532.349,695.35 532.183,690.016 533,684.5C 533.383,683.944 533.883,683.611 534.5,683.5 Z"/></g>
<g><path style="opacity:1" fill="#fee07f" d="M 513.5,684.5 C 514.926,686.679 515.592,689.179 515.5,692C 515.492,693.707 515.158,695.207 514.5,696.5C 514.495,692.466 514.162,688.466 513.5,684.5 Z"/></g>
</svg>
