<svg xmlns="http://www.w3.org/2000/svg" width="1200" height="1500" viewBox="0 0 1200 1500" role="img" aria-labelledby="title desc">
  <title id="title">화이트 우드 교회 라운지</title>
  <desc id="desc">화이트 벽과 원목 가구, 밝은 조명이 있는 내추럴한 공간</desc>
  <defs>
    <linearGradient id="wall" x1="0" y1="0" x2="0" y2="1">
      <stop offset="0" stop-color="#fffdf8"/>
      <stop offset=".72" stop-color="#f3eee6"/>
      <stop offset="1" stop-color="#e6ded3"/>
    </linearGradient>
    <linearGradient id="wood" x1="0" y1="0" x2="1" y2="1">
      <stop offset="0" stop-color="#d8a46f"/>
      <stop offset="1" stop-color="#986444"/>
    </linearGradient>
  </defs>
  <rect width="1200" height="1500" fill="url(#wall)"/>
  <rect x="0" y="970" width="1200" height="530" fill="#ddd5ca"/>
  <path d="M150 115h900v820H150z" fill="#fbfaf6"/>
  <path d="M150 250h900" stroke="#eadfd1" stroke-width="10"/>
  <rect x="230" y="290" width="740" height="440" fill="#f7f2eb" stroke="#c99564" stroke-width="18"/>
  <rect x="250" y="310" width="700" height="400" fill="#dfe8ee"/>
  <rect x="590" y="310" width="20" height="400" fill="#c99564"/>
  <rect x="250" y="500" width="700" height="12" fill="#c99564"/>
  <path d="M275 345h270M650 345h250" stroke="#ffffff" stroke-width="10" opacity=".7"/>
  <rect x="360" y="820" width="470" height="135" rx="6" fill="url(#wood)"/>
  <rect x="455" y="690" width="280" height="78" rx="8" fill="#ffffff" stroke="#d6c9bb" stroke-width="8"/>
  <rect x="310" y="1115" width="280" height="92" rx="6" fill="url(#wood)"/>
  <rect x="676" y="1085" width="250" height="92" rx="6" fill="#ffffff" stroke="#d8cbbb" stroke-width="7"/>
  <path d="M350 1207v120M550 1207v120M715 1177v125M885 1177v125" stroke="#9d6b4a" stroke-width="16" stroke-linecap="round"/>
  <path d="M175 1090h130M945 1048h90" stroke="#ffffff" stroke-width="12" opacity=".8"/>
  <circle cx="420" cy="185" r="18" fill="#ffffff"/>
  <circle cx="600" cy="185" r="18" fill="#ffffff"/>
  <circle cx="780" cy="185" r="18" fill="#ffffff"/>
  <path d="M255 86h690" stroke="#f2d9b9" stroke-width="20" stroke-linecap="round" opacity=".7"/>
</svg>
