<svg xmlns="http://www.w3.org/2000/svg" width="1200" height="1500" viewBox="0 0 1200 1500" role="img" aria-labelledby="title desc">
  <title id="title">예배 공간 임시 이미지</title>
  <desc id="desc">따뜻한 빛이 들어오는 현대적인 예배 공간을 단순화해 표현한 이미지</desc>
  <defs>
    <linearGradient id="wall" x1="0" y1="0" x2="1" y2="1">
      <stop offset="0" stop-color="#fbf4df"/>
      <stop offset=".55" stop-color="#f4eee5"/>
      <stop offset="1" stop-color="#d8c8b7"/>
    </linearGradient>
    <linearGradient id="floor" x1="0" y1="0" x2="0" y2="1">
      <stop offset="0" stop-color="#ded8cf"/>
      <stop offset="1" stop-color="#bdb5aa"/>
    </linearGradient>
    <filter id="soft" x="-20%" y="-20%" width="140%" height="140%">
      <feGaussianBlur stdDeviation="18"/>
    </filter>
  </defs>
  <rect width="1200" height="1500" fill="url(#wall)"/>
  <circle cx="250" cy="250" r="170" fill="#e8c47c" opacity=".45" filter="url(#soft)"/>
  <rect x="0" y="980" width="1200" height="520" fill="url(#floor)"/>
  <path d="M0 980h1200l-160 180H160z" fill="#f6f1e9"/>
  <rect x="515" y="290" width="170" height="430" rx="85" fill="#252927"/>
  <rect x="583" y="215" width="34" height="585" rx="17" fill="#252927"/>
  <rect x="405" y="475" width="390" height="34" rx="17" fill="#252927"/>
  <rect x="220" y="860" width="760" height="86" rx="8" fill="#ffffff" opacity=".86"/>
  <rect x="274" y="1012" width="650" height="34" rx="17" fill="#74aee8" opacity=".24"/>
  <rect x="190" y="1110" width="820" height="36" rx="18" fill="#a36f47" opacity=".2"/>
  <rect x="110" y="1212" width="980" height="38" rx="19" fill="#b47a55" opacity=".16"/>
  <path d="M140 0h160v760H140zM460 0h160v640H460zM780 0h160v760H780z" fill="#ffffff" opacity=".34"/>
  <path d="M140 0h160v760H140zM460 0h160v640H460zM780 0h160v760H780z" fill="none" stroke="#ffffff" stroke-width="14" opacity=".46"/>
  <path d="M185 1420c210-180 390-260 540-240s246-36 330-172" fill="none" stroke="#a66c52" stroke-width="18" stroke-linecap="round" opacity=".5"/>
</svg>
