<svg xmlns="http://www.w3.org/2000/svg" width="1200" height="1500" viewBox="0 0 1200 1500" role="img" aria-labelledby="title desc">
  <title id="title">예배 공간 임시 이미지</title>
  <desc id="desc">따뜻한 빛이 들어오는 현대적인 예배 공간을 단순화해 표현한 이미지</desc>
  <defs>
    <linearGradient id="wall" x1="0" y1="0" x2="1" y2="1">
      <stop offset="0" stop-color="#f8f6ed"/>
      <stop offset="1" stop-color="#dfeae2"/>
    </linearGradient>
    <linearGradient id="floor" x1="0" y1="0" x2="0" y2="1">
      <stop offset="0" stop-color="#d9e3dc"/>
      <stop offset="1" stop-color="#bfcfc5"/>
    </linearGradient>
    <filter id="soft" x="-20%" y="-20%" width="140%" height="140%">
      <feGaussianBlur stdDeviation="18"/>
    </filter>
  </defs>
  <rect width="1200" height="1500" fill="url(#wall)"/>
  <circle cx="250" cy="250" r="170" fill="#f4d990" opacity=".5" filter="url(#soft)"/>
  <rect x="0" y="980" width="1200" height="520" fill="url(#floor)"/>
  <path d="M0 980h1200l-160 180H160z" fill="#eef3ed"/>
  <rect x="515" y="290" width="170" height="430" rx="85" fill="#315f4b"/>
  <rect x="583" y="215" width="34" height="585" rx="17" fill="#315f4b"/>
  <rect x="405" y="475" width="390" height="34" rx="17" fill="#315f4b"/>
  <rect x="220" y="860" width="760" height="86" rx="8" fill="#ffffff" opacity=".86"/>
  <rect x="274" y="1012" width="650" height="34" rx="17" fill="#426b7a" opacity=".28"/>
  <rect x="190" y="1110" width="820" height="36" rx="18" fill="#426b7a" opacity=".22"/>
  <rect x="110" y="1212" width="980" height="38" rx="19" fill="#426b7a" opacity=".18"/>
  <path d="M140 0h160v760H140zM460 0h160v640H460zM780 0h160v760H780z" fill="#ffffff" opacity=".42"/>
  <path d="M140 0h160v760H140zM460 0h160v640H460zM780 0h160v760H780z" fill="none" stroke="#ffffff" stroke-width="14" opacity=".5"/>
</svg>
