<svg xmlns="http://www.w3.org/2000/svg" width="1100" height="780" viewBox="0 0 1100 780" role="img" aria-labelledby="title desc">
  <title id="title">국내 해외 선교 이미지</title>
  <desc id="desc">밝은 하늘과 길, 작은 점들이 국내와 해외 선교를 상징하는 이미지</desc>
  <rect width="1100" height="780" fill="#fbfaf6"/>
  <path d="M0 0h1100v360H0z" fill="#e4f2ff"/>
  <circle cx="910" cy="130" r="62" fill="#ffffff" opacity=".85"/>
  <path d="M0 420c220-95 410-115 630-28 180 72 300 70 470 0v388H0z" fill="#efe8dc"/>
  <path d="M245 780c110-210 230-330 360-390 88 120 146 250 178 390z" fill="#c79a72"/>
  <path d="M480 780c8-130 48-255 125-390 76 136 118 260 126 390z" fill="#fbfaf6" opacity=".75"/>
  <circle cx="230" cy="300" r="14" fill="#d79a00"/>
  <circle cx="340" cy="230" r="10" fill="#ee4d4d"/>
  <circle cx="780" cy="275" r="12" fill="#26a7df"/>
  <circle cx="880" cy="360" r="10" fill="#8bc34a"/>
  <path d="M245 300c170 80 360 66 535-25" fill="none" stroke="#252927" stroke-width="5" stroke-linecap="round" stroke-dasharray="9 16" opacity=".35"/>
</svg>
